<?xml version="1.0" encoding="UTF-8"?>
<svg width="142px" height="44px" viewBox="0 0 142 44" version="1.1" xmlns="http://www.w3.org/2000/svg" xmlns:xlink="http://www.w3.org/1999/xlink">
    <!-- Generator: sketchtool 54.1 (76490) - https://sketchapp.com -->
    <title>3C4BEDF8-0BC0-4023-9AF9-852109D8E965@1.00x</title>
    <desc>Created with sketchtool.</desc>
    <defs>
        <linearGradient x1="61.031%" y1="4.97%" x2="26.511%" y2="71.911%" id="linearGradient-1">
            <stop stop-color="#00A0FF" offset="0%"></stop>
            <stop stop-color="#00A1FF" offset="0.66%"></stop>
            <stop stop-color="#00BEFF" offset="26.01%"></stop>
            <stop stop-color="#00D2FF" offset="51.22%"></stop>
            <stop stop-color="#00DFFF" offset="76.04%"></stop>
            <stop stop-color="#00E3FF" offset="100%"></stop>
        </linearGradient>
        <linearGradient x1="107.607%" y1="50.006%" x2="-130.487%" y2="50.006%" id="linearGradient-2">
            <stop stop-color="#FFE000" offset="0%"></stop>
            <stop stop-color="#FFBD00" offset="40.87%"></stop>
            <stop stop-color="#FFA500" offset="77.54%"></stop>
            <stop stop-color="#FF9C00" offset="100%"></stop>
        </linearGradient>
        <linearGradient x1="86.248%" y1="30.905%" x2="-50.134%" y2="136%" id="linearGradient-3">
            <stop stop-color="#FF3A44" offset="0%"></stop>
            <stop stop-color="#C31162" offset="100%"></stop>
        </linearGradient>
        <linearGradient x1="-18.801%" y1="-11.849%" x2="42.099%" y2="35.081%" id="linearGradient-4">
            <stop stop-color="#32A071" offset="0%"></stop>
            <stop stop-color="#2DA771" offset="6.85%"></stop>
            <stop stop-color="#15CF74" offset="47.62%"></stop>
            <stop stop-color="#06E775" offset="80.09%"></stop>
            <stop stop-color="#00F076" offset="100%"></stop>
        </linearGradient>
    </defs>
    <g id="Казахстан-✔️" stroke="none" stroke-width="1" fill="none" fill-rule="evenodd">
        <g id="1.-Footer-—-2XS" transform="translate(-164.000000, -191.000000)" fill-rule="nonzero">
            <g id="google-play" transform="translate(164.000000, 191.000000)">
                <path d="M5.688875,0 L136.311125,0 C138.289141,0 139.006906,0.2046 139.730219,0.5874 C140.453531,0.9713 141.020422,1.5334 141.407594,2.2506 C141.793656,2.9678 142,3.6795 142,5.6408 L142,38.3592 C142,40.3205 141.793656,41.0322 141.407594,41.7494 C141.029287,42.4580123 140.44487,43.0374898 139.730219,43.4126 C139.006906,43.7954 138.289141,44 136.311125,44 L5.688875,44 C3.71085938,44 2.99309375,43.7954 2.26978125,43.4126 C1.55512965,43.0374898 0.970713451,42.4580123 0.59240625,41.7494 C0.20634375,41.0322 0,40.3205 0,38.3592 L0,5.6408 C0,3.6795 0.20634375,2.9678 0.59240625,2.2506 C0.970713451,1.54198771 1.55512965,0.962510238 2.26978125,0.5874 C2.99309375,0.2046 3.71085938,0 5.688875,0 Z" id="Path" fill="#000000"></path>
                <path d="M70.6398,23.8557 C73.0268,23.8557 74.9727,25.6707 74.9727,28.1721 C74.9727,30.657 73.0268,32.4885 70.6398,32.4885 C68.2528,32.4885 66.3069,30.657 66.3069,28.1721 C66.3069,25.6696 68.2528,23.8557 70.6398,23.8557 L70.6398,23.8557 Z M70.6398,30.7879 C71.9477,30.7879 73.0763,29.7099 73.0752,28.1721 C73.0752,26.6189 71.9477,25.5563 70.6398,25.5563 C69.3319,25.5563 68.2033,26.6189 68.2033,28.1721 C68.2033,29.7088 69.3319,30.7879 70.6398,30.7879 Z M61.1897,23.8557 C63.5767,23.8557 65.5215,25.6707 65.5226,28.1721 C65.5226,30.657 63.5767,32.4885 61.1897,32.4885 C58.8027,32.4885 56.8568,30.657 56.8568,28.1721 C56.8568,25.6696 58.8027,23.8557 61.1897,23.8557 Z M61.1897,30.7879 C62.4976,30.7879 63.6251,29.7099 63.6251,28.1721 C63.6251,26.6189 62.4976,25.5563 61.1897,25.5563 C59.8818,25.5563 58.7532,26.6189 58.7532,28.1721 C58.7532,29.7088 59.8818,30.7879 61.1897,30.7879 L61.1897,30.7879 Z M49.9455,25.1812 L49.9444,25.1812 L56.1099,25.1812 C56.1759,25.5079 56.2078,25.9006 56.2078,26.3252 C56.2078,27.6991 55.8316,29.3997 54.6216,30.6097 C53.4446,31.8362 51.9409,32.4896 49.9466,32.4896 C46.2517,32.4896 43.1453,29.4811 43.1453,25.7862 C43.1453,22.0902 46.2517,19.0828 49.9466,19.0828 C51.9893,19.0828 53.4446,19.8847 54.5402,20.9308 L53.2488,22.2222 C52.4634,21.4852 51.4008,20.9132 49.9455,20.9132 C47.2483,20.9132 45.1396,23.089 45.1396,25.7862 C45.1396,28.4834 47.2483,30.6581 49.9455,30.6581 C51.6956,30.6581 52.6933,29.9541 53.3302,29.3183 C53.8538,28.7947 54.197,28.0423 54.3279,27.0127 L49.9455,27.0127 L49.9455,25.1812 L49.9455,25.1812 Z M95.9255,26.6035 L96.1213,27.0941 L90.3496,29.4811 C90.7907,30.3468 91.476,30.789 92.4418,30.789 C93.4065,30.789 94.0764,30.316 94.567,29.5966 L96.0388,30.5778 C95.5647,31.2807 94.4218,32.4907 92.4429,32.4907 C89.991,32.4907 88.1595,30.5932 88.1595,28.1743 C88.1595,25.608 90.0064,23.8579 92.2306,23.8579 C94.4702,23.8579 95.5658,25.6399 95.9255,26.6035 L95.9255,26.6035 Z M90.0405,28.0423 L93.8993,26.4396 C93.6859,25.9006 93.049,25.5244 92.2966,25.5244 C91.3319,25.5244 89.991,26.3736 90.0405,28.0423 Z M85.3479,32.2278 L85.3479,19.5404 L87.2454,19.5404 L87.2454,32.2278 L85.3479,32.2278 L85.3479,32.2278 Z M82.2415,24.8215 L82.2404,24.8215 L82.2404,24.1197 L84.0389,24.1197 L84.0389,31.8703 C84.0389,35.0581 82.159,36.366 79.9348,36.366 C77.8426,36.366 76.5842,34.9602 76.1101,33.814 L77.7612,33.1287 C78.056,33.8316 78.7754,34.6654 79.9359,34.6654 C81.3593,34.6654 82.2415,33.7821 82.2415,32.131 L82.2415,31.5095 L82.1755,31.5095 C81.752,32.0331 80.9336,32.4907 79.904,32.4907 C77.7469,32.4907 75.768,30.6097 75.768,28.1897 C75.768,25.7554 77.7458,23.8579 79.904,23.8579 C80.9336,23.8579 81.7498,24.3144 82.1755,24.8215 L82.2415,24.8215 L82.2415,24.8215 Z M80.0668,30.7879 C81.3582,30.7879 82.3724,29.6934 82.3724,28.1875 C82.3724,26.6662 81.3582,25.5552 80.0668,25.5552 C78.7589,25.5552 77.6633,26.6662 77.6633,28.1875 C77.6633,29.6923 78.7589,30.7879 80.0668,30.7879 Z M104.8102,19.5404 C106.909,19.5404 108.9715,21.0606 108.9715,23.4806 C108.9715,25.9006 106.909,27.4208 104.8102,27.4208 L102.1658,27.4208 L102.1658,32.2267 L100.2727,32.2267 L100.2727,19.5404 L104.8102,19.5404 L104.8102,19.5404 Z M104.8586,25.6553 C106.2743,25.6553 107.0784,24.464 107.0784,23.4817 C107.0784,22.4785 106.2743,21.307 104.8586,21.307 L102.1658,21.307 L102.1658,25.6553 L104.8586,25.6553 Z M116.5615,23.8337 C118.7318,23.8337 120.4126,25.0899 120.4148,27.3427 L120.4148,32.2069 L118.5866,32.2069 L118.5866,31.2279 L118.5206,31.2279 C118.0806,31.8956 117.3788,32.4676 116.105,32.4676 C114.4407,32.4676 112.9557,31.3742 112.9557,29.6769 C112.9557,27.8168 114.7993,26.8202 116.611,26.8202 C117.5097,26.8202 118.2434,27.115 118.5866,27.3108 L118.5866,27.1788 C118.5712,26.1338 117.5746,25.5475 116.5956,25.5475 C115.8938,25.5475 115.2239,25.7763 114.8653,26.4781 L113.1834,25.7763 C113.7708,24.4376 115.1898,23.8337 116.5615,23.8337 L116.5615,23.8337 Z M116.3327,30.7857 C117.4261,30.7857 118.437,29.953 118.5855,28.7782 C118.0795,28.5329 117.6879,28.3536 116.8552,28.3536 C115.9246,28.3536 114.8477,28.7298 114.8477,29.7088 C114.8477,30.4755 115.7123,30.7857 116.3327,30.7857 Z M127.072,24.1109 L129.1763,24.1109 L123.97,36.0745 L121.9944,36.0745 L123.9205,31.7977 L120.5424,24.1109 L122.5829,24.1109 L124.8357,29.6109 L124.9017,29.6109 L127.072,24.1109 L127.072,24.1109 Z M110.0165,32.2278 L110.0165,19.5404 L111.9096,19.5404 L111.9096,32.2278 L110.0165,32.2278 L110.0165,32.2278 Z M44.2332,16.2668 L43.4841,16.2668 L43.4841,14.2274 L44.0792,14.2274 C44.6061,13.7731 44.8635,12.9976 44.8525,11.8976 L44.8525,8.8869 L48.9181,8.8869 L48.9181,14.2274 L49.5979,14.2274 L49.5979,16.2679 L48.851,16.2679 L48.851,14.9765 L44.2321,14.9765 L44.2321,16.2679 L44.2332,16.2679 L44.2332,16.2668 Z M45.6368,11.8965 C45.6489,12.859 45.4553,13.6367 45.0593,14.2263 L48.1371,14.2263 L48.1371,9.6338 L45.6368,9.6338 L45.6368,11.8965 L45.6368,11.8965 Z M55.7007,14.1889 C55.1012,14.8038 54.3576,15.1118 53.4677,15.1118 C52.5778,15.1118 51.8331,14.8038 51.2347,14.1878 C50.6363,13.574 50.3371,12.8216 50.3371,11.9317 C50.3371,11.0407 50.6352,10.2894 51.2347,9.6745 C51.832,9.0585 52.5767,8.7505 53.4677,8.7505 C54.3521,8.7505 55.0946,9.0607 55.6963,9.6789 C56.2969,10.2949 56.5972,11.0473 56.5972,11.9328 C56.5983,12.8216 56.2991,13.574 55.7007,14.1878 L55.7007,14.1889 Z M51.8144,13.6785 C52.2654,14.135 52.8165,14.3627 53.4688,14.3627 C54.0915571,14.3753594 54.6912975,14.1273284 55.1232,13.6785 C55.5731,13.222 55.7997,12.639 55.7997,11.9295 C55.7997,11.2211 55.5731,10.6392 55.1232,10.1827 C54.6911432,9.73409802 54.0915064,9.48610994 53.4688,9.4985 C52.8165,9.4985 52.2665,9.7262 51.8144,10.1827 C51.3634,10.6392 51.139,11.2222 51.139,11.9306 C51.139,12.639 51.3634,13.222 51.8144,13.6785 L51.8144,13.6785 Z M60.5363,15.1107 C59.6409,15.1107 58.8896,14.8071 58.2824,14.201 C57.6752,13.5949 57.3727,12.837 57.3727,11.9306 C57.3727,11.0231 57.6741,10.2663 58.2824,9.6602 C58.8885,9.0541 59.6398,8.7494 60.5363,8.7494 C61.4548,8.7494 62.2006,9.0794 62.7726,9.7438 L62.2281,10.2707 C61.8145,9.7537 61.2502,9.4974 60.5363,9.4974 C59.8719,9.4974 59.312,9.7218 58.8566,10.1684 C58.4001,10.6172 58.1724,11.2024 58.1724,11.9284 C58.1724,12.6544 58.4001,13.2429 58.8566,13.6884 C59.312,14.1372 59.873,14.3616 60.5363,14.3616 C61.2678,14.3616 61.8915,14.0668 62.4074,13.4783 L62.9519,14.0228 C62.6667316,14.3626339 62.308851,14.6340518 61.9047,14.817 C61.4758151,15.0146391 61.0085135,15.1149362 60.5363,15.1107 L60.5363,15.1107 Z M66.1155,14.9754 L65.3323,14.9754 L65.3323,9.6349 L63.6317,9.6349 L63.6317,8.8858 L67.8161,8.8858 L67.8161,9.6338 L66.1155,9.6338 L66.1155,14.9754 L66.1155,14.9754 Z M73.1885,8.8858 L70.884,14.0228 C70.5661,14.7477 70.0931,15.1107 69.465,15.1107 C69.278,15.1107 69.0767,15.0667 68.86,14.9743 L69.0646,14.2516 C69.1955,14.3253 69.3308,14.3616 69.4727,14.3616 C69.6542,14.3616 69.795,14.3275 69.8929,14.2549 C69.9919,14.1834 70.0843,14.0547 70.169,13.8677 L70.3901,13.3826 L68.3408,8.8836 L69.2593,8.8836 L70.7641,12.3805 L70.7971,12.3805 L72.2678,8.8847 L73.1885,8.8847 L73.1885,8.8858 Z M74.074,14.9754 L74.074,8.8869 L78.4795,8.8869 L78.4795,14.9754 L77.6963,14.9754 L77.6963,9.6349 L74.8561,9.6349 L74.8561,14.9754 L74.074,14.9754 L74.074,14.9754 Z M79.8743,14.9754 L79.8743,8.8869 L80.6564,8.8869 L80.6564,11.4972 L83.7001,11.4972 L83.7001,8.8869 L84.4833,8.8869 L84.4833,14.9754 L83.7001,14.9754 L83.7001,12.2276 L80.6564,12.2276 L80.6564,14.9754 L79.8743,14.9754 L79.8743,14.9754 Z M90.8567,14.1889 C90.2583,14.8038 89.5136,15.1118 88.6248,15.1118 C87.7349,15.1118 86.9902,14.8038 86.394,14.1878 C85.7945,13.574 85.4964,12.8216 85.4964,11.9317 C85.4964,11.0407 85.7945,10.2894 86.394,9.6745 C86.9913,9.0585 87.7349,8.7505 88.6248,8.7505 C89.5092,8.7505 90.2517,9.0607 90.8534,9.6789 C91.454,10.2949 91.7543,11.0473 91.7543,11.9328 C91.7543,12.8216 91.4551,13.574 90.8567,14.1878 L90.8567,14.1889 Z M86.9704,13.6785 C87.4214,14.135 87.9725,14.3627 88.6248,14.3627 C89.2475571,14.3753594 89.8472975,14.1273284 90.2792,13.6785 C90.7302,13.222 90.9557,12.639 90.9557,11.9295 C90.9557,11.2211 90.7291,10.6392 90.2792,10.1827 C89.8471432,9.73409802 89.2475064,9.48610994 88.6248,9.4985 C87.9725,9.4985 87.4214,9.7262 86.9704,10.1827 C86.5194,10.6392 86.295,11.2222 86.295,11.9306 C86.295,12.639 86.5205,13.222 86.9704,13.6785 L86.9704,13.6785 Z M94.9531,14.9754 L94.9531,8.8869 L97.1542,8.8869 C97.6305,8.8869 98.043,9.0442 98.3917,9.3588 C98.7404,9.6745 98.9153,10.0694 98.9153,10.5457 C98.9153,10.835 98.8394,11.0902 98.6887,11.3113 C98.5395799,11.5318526 98.3314639,11.706045 98.0881,11.814 L98.0881,11.847 C98.3884,11.9482 98.6348,12.1253 98.8284,12.3739 C99.0198,12.6236 99.1177,12.9129 99.1177,13.2418 C99.1177,13.7401 98.934,14.1548 98.5688,14.4826 C98.2154319,14.8068055 97.7514091,14.9835199 97.2719,14.9765 L94.9531,14.9765 L94.9531,14.9754 L94.9531,14.9754 Z M95.7352,11.4972 L97.1564,11.4972 C97.4523,11.4972 97.6888,11.4004 97.867,11.2035 C98.0354241,11.0317273 98.1311597,10.8016467 98.1343,10.5611 C98.1326643,10.3230356 98.0397447,10.0946739 97.8747,9.9231 C97.7007544,9.73018597 97.4500505,9.62458399 97.1905,9.6349 L95.7352,9.6349 L95.7352,11.4972 L95.7352,11.4972 Z M95.7352,14.2274 L97.3093,14.2274 C97.5880114,14.2365156 97.856245,14.1207516 98.0408,13.9117 C98.2185477,13.7257983 98.3188422,13.4791918 98.3213,13.222 C98.3177942,12.9649304 98.2139791,12.7194057 98.032,12.5378 C97.836569,12.3296674 97.5604882,12.2165064 97.2752,12.2276 L95.7352,12.2276 L95.7352,14.2274 L95.7352,14.2274 Z" id="Shape" fill="#FFFFFF"></path>
                <g id="Group" transform="translate(11.000000, 8.800000)">
                    <path d="M1.0857,0.6303 C0.7909,0.9427 0.6149,1.4267 0.6149,2.0559 L0.6149,24.4992 C0.6149,25.1273 0.7898,25.6124 1.0857,25.9248 L1.1616,25.9974 L13.7346,13.4244 L13.7346,13.1285 L1.1616,0.5555 L1.0857,0.6303 Z" id="Path" fill="url(#linearGradient-1)"></path>
                    <path d="M17.9223,17.6198 L13.7324,13.4266 L13.7324,13.1296 L17.9234,8.9386 L18.018,8.9925 L22.9823,11.814 C24.4002,12.6192 24.4002,13.9392 22.9823,14.7444 L18.018,17.567 L17.9223,17.6198 L17.9223,17.6198 Z" id="Path" fill="url(#linearGradient-2)"></path>
                    <path d="M18.018,17.5659 L13.7313,13.2792 L1.0835,25.9259 C1.551,26.4209 2.3221,26.4814 3.1922,25.9875 L18.018,17.5659" id="Path" fill="url(#linearGradient-3)"></path>
                    <path d="M18.018,8.9925 L3.1922,0.5687 C2.3221,0.0748 1.551,0.1353 1.0835,0.6303 L13.7302,13.277 L18.018,8.9925 Z" id="Path" fill="url(#linearGradient-4)"></path>
                    <g transform="translate(0.000000, 16.500000)" fill="#000000" id="Path">
                        <path d="M17.9234,0.9713 L3.1933,9.339 C2.3694,9.8065 1.6324,9.7757 1.1605,9.35 L1.0846,9.4259 L1.1605,9.4985 C1.6335,9.9242 2.3694,9.9561 3.1933,9.4875 L18.0191,1.0637 L17.9234,0.9702 L17.9234,0.9713 Z" opacity="0.2"></path>
                        <path d="M1.0857,9.2796 C0.7909,8.9683 0.6149,8.4832 0.6149,7.854 L0.6149,8.0025 C0.6149,8.6295 0.7898,9.1157 1.0857,9.4281 L1.1616,9.3511 L1.0857,9.2796 Z" opacity="0.12"></path>
                    </g>
                    <path d="M22.9845,14.597 L17.9245,17.4713 L18.0191,17.5659 L22.9834,14.7444 C23.6929,14.3407 24.0482,13.8094 24.0482,13.2792 C23.9877,13.7599 23.628,14.2318 22.9845,14.597 L22.9845,14.597 Z" id="Path" fill="#000000" opacity="0.12"></path>
                    <path d="M3.1944,0.7183 L22.9845,11.9625 C23.628,12.3277 23.9877,12.7985 24.0482,13.2792 C24.0482,12.7479 23.694,12.2166 22.9845,11.814 L3.1944,0.5698 C1.7765,-0.2354 0.6149,0.4334 0.6149,2.057 L0.6149,2.2055 C0.6149,0.5819 1.7754,-0.0869 3.1944,0.7183 Z" id="Path" fill="#FFFFFF" opacity="0.25"></path>
                </g>
            </g>
        </g>
    </g>
</svg>