<?xml version="1.0" encoding="UTF-8"?>
<svg width="142px" height="44px" viewBox="0 0 142 44" version="1.1" xmlns="http://www.w3.org/2000/svg" xmlns:xlink="http://www.w3.org/1999/xlink">
    <!-- Generator: sketchtool 54.1 (76490) - https://sketchapp.com -->
    <title>74C7C005-18E9-48C7-9A9D-879023572A86@1.00x</title>
    <desc>Created with sketchtool.</desc>
    <g id="Казахстан-✔️" stroke="none" stroke-width="1" fill="none" fill-rule="evenodd">
        <g id="1.-Footer-—-2XS" transform="translate(-14.000000, -191.000000)" fill-rule="nonzero">
            <g id="app-store" transform="translate(14.000000, 191.000000)">
                <path d="M5.688875,0 L136.311125,0 C138.289141,0 139.006906,0.2046 139.730219,0.5874 C140.453531,0.9713 141.020422,1.5334 141.407594,2.2506 C141.793656,2.9678 142,3.6795 142,5.6408 L142,38.3592 C142,40.3205 141.793656,41.0322 141.407594,41.7494 C141.029287,42.4580123 140.44487,43.0374898 139.730219,43.4126 C139.006906,43.7954 138.289141,44 136.311125,44 L5.688875,44 C3.71085938,44 2.99309375,43.7954 2.26978125,43.4126 C1.55512965,43.0374898 0.970713451,42.4580123 0.59240625,41.7494 C0.20634375,41.0322 0,40.3205 0,38.3592 L0,5.6408 C0,3.6795 0.20634375,2.9678 0.59240625,2.2506 C0.970713451,1.54198771 1.55512965,0.962510238 2.26978125,0.5874 C2.99309375,0.2046 3.71085938,0 5.688875,0 Z" id="Path" fill="#000000"></path>
                <path d="M26.9654,21.5567 C26.9678984,23.8230233 28.3247125,25.8684216 30.4117,26.752 C30.0106763,28.0563949 29.4055066,29.2890105 28.6187,30.404 C27.5627,31.9858 26.4561,33.5302 24.6972,33.5588 C22.99,33.5984 22.4158,32.5534 20.4567,32.5534 C18.4789,32.5534 17.8673,33.5302 16.2294,33.5984 C14.5552,33.6611 13.2759,31.9121 12.1803,30.3468 C9.9924,27.1513 8.2885,21.3378 10.5732,17.3833 C11.6457612,15.4553758 13.6514686,14.2318234 15.8565,14.1603 C17.5318,14.1262 19.0872,15.2922 20.1179,15.2922 C21.1277,15.2922 23.0516,13.8974 25.0349,14.1042 C26.9202841,14.1621547 28.6675995,15.1069691 29.7484,16.6529 C28.0420354,17.7029232 26.9918993,19.5533212 26.9654,21.5567 L26.9654,21.5567 Z M23.7402,12.0021 C22.8099836,13.1592735 21.4001193,13.825482 19.9155,13.8094 C19.8216506,12.3588239 20.3079519,10.9303881 21.2674,9.8384 C22.2394776,8.73234081 23.5924172,8.03289659 25.0569,7.8793 C25.171363,9.3725642 24.6990014,10.8516046 23.7402,12.0021 L23.7402,12.0021 Z M47.6751,29.6351 L42.0838,29.6351 L40.7407,33.6006 L38.3735,33.6006 L43.67,18.9332 L46.1296,18.9332 L51.425,33.6006 L49.0171,33.6006 L47.6751,29.6351 L47.6751,29.6351 Z M42.6635,27.8058 L47.0954,27.8058 L44.9108,21.3708 L44.8503,21.3708 L42.6635,27.8058 L42.6635,27.8058 Z M62.8617,28.2524 C62.8617,31.5744 61.083,33.7106 58.399,33.7106 C57.0115633,33.7828991 55.7047542,33.0562295 55.0341,31.8395 L54.9835,31.8395 L54.9835,37.136 L52.789,37.136 L52.789,22.9053 L54.9142,22.9053 L54.9142,24.684 L54.9549,24.684 C55.6550683,23.4743082 56.963503,22.7474001 58.3605,22.792 C61.0731,22.7942 62.8617,24.9392 62.8617,28.2524 L62.8617,28.2524 Z M60.6056,28.2524 C60.6056,26.0854 59.4869,24.6631 57.7786,24.6631 C56.1022,24.6631 54.9736,26.1151 54.9736,28.2524 C54.9736,30.4073 56.1022,31.8494 57.7786,31.8494 C59.4869,31.8494 60.6056,30.4381 60.6056,28.2524 L60.6056,28.2524 Z M74.6317,28.2524 C74.6317,31.5744 72.853,33.7106 70.169,33.7106 C68.7815633,33.7828991 67.4747542,33.0562295 66.8041,31.8395 L66.7535,31.8395 L66.7535,37.136 L64.5579,37.136 L64.5579,22.9053 L66.6831,22.9053 L66.6831,24.684 L66.7238,24.684 C67.4239683,23.4743082 68.732403,22.7474001 70.1294,22.792 C72.842,22.7942 74.6317,24.9392 74.6317,28.2524 L74.6317,28.2524 Z M72.3756,28.2524 C72.3756,26.0854 71.2569,24.6631 69.5497,24.6631 C67.8733,24.6631 66.7447,26.1151 66.7447,28.2524 C66.7447,30.4073 67.8733,31.8494 69.5497,31.8494 C71.2569,31.8494 72.3756,30.4381 72.3756,28.2524 L72.3756,28.2524 Z M82.4109,29.5119 C82.5726,30.9661 83.9861,31.9209 85.9177,31.9209 C87.7679,31.9209 89.0989,30.9661 89.0989,29.6538 C89.0989,28.5153 88.2959,27.8333 86.3951,27.3658 L84.4943,26.9093 C81.8015,26.2581 80.5508,24.9986 80.5508,22.9559 C80.5508,20.4248 82.7563,18.6868 85.888,18.6868 C88.9878,18.6868 91.1119,20.4248 91.1834,22.9548 L88.9669,22.9548 C88.8349,21.4918 87.6238,20.6085 85.8561,20.6085 C84.0873,20.6085 82.8773,21.5017 82.8773,22.8041 C82.8773,23.8414 83.6495,24.4508 85.5404,24.9161 L87.1563,25.3143 C90.1659,26.026 91.4155,27.2349 91.4155,29.381 C91.4155,32.1244 89.2298,33.8437 85.7527,33.8437 C82.5011,33.8437 80.3044,32.1662 80.1614,29.5119 L82.4109,29.5119 L82.4109,29.5119 Z M96.1543,20.3753 L96.1543,22.9053 L98.1871,22.9053 L98.1871,24.6455 L96.1543,24.6455 L96.1543,30.5404 C96.1543,31.4567 96.5613,31.8824 97.4545,31.8824 C97.6957582,31.8791245 97.9366544,31.8625996 98.1761,31.8329 L98.1761,33.5599 C97.7744094,33.6356536 97.3659981,33.6699337 96.9573,33.6622 C94.7914,33.6622 93.9477,32.8482 93.9477,30.7747 L93.9477,24.6455 L92.3934,24.6455 L92.3934,22.9064 L93.9477,22.9064 L93.9477,20.3753 L96.1543,20.3753 L96.1543,20.3753 Z M99.3663,28.2513 C99.3663,24.8875 101.3474,22.7733 104.4373,22.7733 C107.5371,22.7733 109.5094,24.8875 109.5094,28.2513 C109.5094,31.6261 107.5481,33.7293 104.4373,33.7293 C101.3276,33.7326 99.3663,31.6272 99.3663,28.2513 Z M107.2731,28.2513 C107.2731,25.9446 106.2149,24.5817 104.4373,24.5817 C102.6597,24.5817 101.6026,25.9545 101.6026,28.2524 C101.6026,30.5701 102.6597,31.922 104.4373,31.922 C106.2171,31.922 107.2731,30.569 107.2731,28.2524 L107.2731,28.2513 Z M111.32,22.9053 L113.4133,22.9053 L113.4133,24.7258 L113.4639,24.7258 C113.756195,23.5540839 114.830065,22.7478775 116.0368,22.7942 C116.2898,22.7931 116.5417,22.8206 116.7892,22.8756 L116.7892,24.9282 C116.469735,24.8305237 116.136406,24.7859313 115.8025,24.7962 C115.157303,24.7698773 114.532843,25.0269269 114.093145,25.4998297 C113.653447,25.9727325 113.442458,26.6142224 113.5156,27.2558 L113.5156,33.5995 L111.32,33.5995 L111.32,22.9053 L111.32,22.9053 Z M126.9092,30.4579 C126.6133,32.3994 124.7235,33.7315 122.3046,33.7315 C119.1938,33.7315 117.2633,31.6481 117.2633,28.3041 C117.2633,24.9491 119.2048,22.7744 122.2133,22.7744 C125.1723,22.7744 127.0324,24.8061 127.0324,28.0489 L127.0324,28.8013 L119.4798,28.8013 L119.4798,28.9333 C119.408813,29.7292448 119.683397,30.5172993 120.23363,31.0967911 C120.783863,31.6762829 121.556648,31.9912907 122.3552,31.9616 C123.42023,32.0612327 124.42433,31.4498277 124.8247,30.4579 L126.9092,30.4579 L126.9092,30.4579 Z M119.4886,27.2668 L124.8346,27.2668 C124.87462,26.551511 124.614341,25.8519686 124.116505,25.3367999 C123.618668,24.8216311 122.928439,24.5375735 122.2122,24.5531 C120.71692,24.5445694 119.497686,25.7495229 119.4886,27.2448 L119.4886,27.2668 L119.4886,27.2668 Z M41.1048,10.8713 L42.0475,10.8713 C42.6959665,10.9516001 43.2868282,10.4912203 43.3675,9.8428 C43.3708,9.8098 43.3741,9.7801 43.3752,9.7471 C43.3752,9.097 42.8868,8.6768 42.0574,8.6768 C41.3704704,8.58145919 40.7360626,9.06034109 40.6395,9.7471 L40.6362,9.7801 L39.6,9.7801 C39.6363887,9.1683694 39.9251582,8.59921502 40.3973321,8.20858702 C40.8695061,7.81795902 41.4826839,7.64093517 42.0904,7.7198 C43.4775,7.7198 44.4554,8.4975 44.4554,9.614 C44.462084,10.3861488 43.9285662,11.0580878 43.175,11.2266 L43.175,11.3091 C44.077,11.3487 44.7777,12.111 44.7425,13.013 C44.6775495,13.6425536 44.3618305,14.2194333 43.8665742,14.613486 C43.3713179,15.0075386 42.7382497,15.1855652 42.1102,15.1074 C41.4945621,15.1915598 40.8707232,15.0274916 40.3761441,14.6513474 C39.881565,14.2752032 39.5568324,13.7178505 39.4735,13.1021 C39.4702,13.0746 39.4658,13.0493 39.4636,13.0218 L40.5141,13.0218 C40.5768,13.6961 41.1972,14.1306 42.1102,14.1306 C43.0232,14.1306 43.6194,13.6422 43.6194,12.9536 C43.6194,12.2562 43.0573,11.825 42.0761,11.825 L41.1037,11.825 L41.1037,10.868 L41.1048,10.868 L41.1048,10.8713 L41.1048,10.8713 Z M45.936,13.4343 C45.936,12.4762 46.6499,11.924 47.9149,11.847 L49.3559,11.7645 L49.3559,11.3058 C49.3559,10.7437 48.9863,10.4258 48.2669,10.4258 C47.6817,10.4258 47.2758,10.6425 47.1581,11.0187 L46.1417,11.0187 C46.2495,10.1057 47.1097,9.5183 48.3164,9.5183 C49.6496,9.5183 50.402,10.1816 50.402,11.3058 L50.402,14.9391 L49.3911,14.9391 L49.3911,14.1911 L49.3086,14.1911 C48.9658329,14.7373167 48.3555768,15.0567345 47.7114,15.0271 C47.259405,15.0743527 46.8085184,14.9281608 46.4702433,14.6246773 C46.1319682,14.3211938 45.9378886,13.8887543 45.936,13.4343 Z M49.3548,12.9811 L49.3548,12.5367 L48.0557,12.6192 C47.3231,12.6687 46.992,12.9162 46.992,13.387 C46.992,13.8655 47.4078,14.1438 47.9787,14.1438 C48.3165397,14.1776415 48.6536627,14.0730425 48.9130128,13.8539114 C49.1723629,13.6347803 49.3317705,13.3198485 49.3548,12.9811 Z M53.1861,10.505 L53.1861,14.9402 L52.1367,14.9402 L52.1367,9.6217 L55.6391,9.6217 L55.6391,10.505 L53.1861,10.505 L53.1861,10.505 Z M61.9993,12.2782 C61.9993,13.9689 61.1446,15.0282 59.8015,15.0282 C59.1284182,15.0750574 58.4894886,14.7263942 58.1647,14.135 L58.0822,14.135 L58.0822,16.709 L57.0328,16.709 L57.0328,9.6217 L58.0437,9.6217 L58.0437,10.5006 L58.1218,10.5006 C58.4518,9.8901 59.0986,9.5172 59.7927,9.5326 C61.1457,9.5315 61.9993,10.5875 61.9993,12.2782 Z M60.9202,12.2782 C60.9202,11.1551 60.3878,10.4764 59.5001,10.4764 C58.6168,10.4764 58.0646,11.1694 58.0646,12.2826 C58.0646,13.3914 58.6168,14.0844 59.4968,14.0844 C60.3878,14.0844 60.9202,13.4057 60.9202,12.2782 Z M63.3974,16.8432 L63.3974,15.9412 C63.5107,15.9555 63.6251,15.9621 63.7406,15.961 C64.2035755,15.9950592 64.6179277,15.6750503 64.702,15.2185 L64.7801,14.96 L62.8551,9.6217 L63.998,9.6217 L65.3323,13.8457 L65.4148,13.8457 L66.7436,9.6217 L67.8557,9.6217 L65.8735,15.1591 C65.4192,16.4538 64.9154,16.8685 63.8319,16.8685 C63.6867861,16.8666843 63.541818,16.8586101 63.3974,16.8443 L63.3974,16.8432 Z M68.6741,13.4299 L69.7191,13.4299 C69.8214,13.8985 70.2614,14.1427 70.8763,14.1427 C71.5759,14.1427 72.0049,13.8347 72.0049,13.3562 C72.0049,12.8436 71.6199,12.5994 70.8763,12.5994 L70.081,12.5994 L70.081,11.7843 L70.8631,11.7843 C71.4978,11.7843 71.8212,11.5401 71.8212,11.0968 C71.8212,10.7063 71.5077,10.4093 70.8631,10.4093 C70.2768,10.4093 69.8467,10.6579 69.7796,11.0792 L68.7687,11.0792 C68.9264195,10.0754608 69.8587699,9.3828018 70.8653,9.5216 C72.1303,9.5216 72.853,10.0936 72.853,10.9912 C72.8653174,11.5071567 72.5148271,11.9613261 72.0126,12.0802 L72.0126,12.1627 C72.6132,12.2397 73.0598,12.7545 73.0532,13.3595 C73.0532,14.3704 72.193,15.0403 70.8785,15.0403 C69.7158,15.0359 68.772,14.5046 68.6741,13.4299 L68.6741,13.4299 Z M74.5624,14.9391 L74.5624,9.6206 L75.603,9.6206 L75.603,13.2781 L75.6855,13.2781 L78.1374,9.6195 L79.178,9.6195 L79.178,14.9391 L78.1374,14.9391 L78.1374,11.2607 L78.0593,11.2607 L75.6041,14.9391 L74.5624,14.9391 L74.5624,14.9391 Z M84.909,10.505 L83.2348,10.505 L83.2348,14.9402 L82.1843,14.9402 L82.1843,10.505 L80.5101,10.505 L80.5101,9.6217 L84.9101,9.6217 L84.9101,10.505 L84.909,10.505 L84.909,10.505 Z M90.563,13.5025 C90.2678058,14.5054535 89.2967892,15.1531067 88.2574,15.0403 C87.5484204,15.0588879 86.8670923,14.7649684 86.3941116,14.2364925 C85.9211309,13.7080165 85.7042909,12.9983849 85.8011,12.2958 C85.7070248,11.5911145 85.923305,10.8802766 86.3939207,10.3474045 C86.8645364,9.81453249 87.5431902,9.51204823 88.2541,9.5183 C89.7347,9.5183 90.6279,10.5292 90.6279,12.2001 L90.6279,12.5664 L86.8725,12.5664 L86.8725,12.6258 C86.838589,13.0205658 86.9732391,13.4112566 87.2431685,13.701305 C87.5130979,13.9913534 87.8931185,14.1536937 88.2893,14.1482 C88.803,14.2098 89.3013,13.9557 89.5543,13.5036 L90.563,13.5025 L90.563,13.5025 Z M86.8725,11.7887 L89.5576,11.7887 C89.5839964,11.4280066 89.4571504,11.0728917 89.2082072,10.8105488 C88.9592641,10.5482058 88.6112809,10.402933 88.2497,10.4104 C87.8828064,10.405615 87.5295551,10.5493273 87.2702037,10.8088859 C87.0108523,11.0684444 86.8674221,11.4218104 86.8725,11.7887 L86.8725,11.7887 Z M95.0136,9.6206 L97.4116,9.6206 C98.4522,9.6206 99.0627,10.1475 99.0627,10.9736 C99.066,11.5126 98.692,11.9823 98.164,12.0956 L98.164,12.1792 C98.8088891,12.220682 99.3085809,12.759518 99.3014,13.4057 C99.3014,14.3341 98.6029,14.9391 97.4369,14.9391 L95.0147,14.9391 L95.0147,9.6206 L95.0136,9.6206 L95.0136,9.6206 Z M96.0542,10.4269 L96.0542,11.8041 L97.0948,11.8041 C97.7295,11.8041 98.0331,11.5599 98.0331,11.11 C98.0331,10.6953 97.7691,10.4269 97.2114,10.4269 L96.0542,10.4269 L96.0542,10.4269 Z M96.0542,12.5752 L96.0542,14.1328 L97.2994,14.1328 C97.9198,14.1328 98.252,13.8578 98.252,13.3551 C98.252,12.8227 97.8758,12.5741 97.1685,12.5741 L96.0542,12.5741 L96.0542,12.5752 Z" id="Shape" fill="#FFFFFF"></path>
            </g>
        </g>
    </g>
</svg>